<?xml version="1.0" encoding="UTF-8" standalone="no"?>
<!-- Created with Inkscape (http://www.inkscape.org/) -->

<svg
   xmlns:dc="http://purl.org/dc/elements/1.1/"
   xmlns:cc="http://creativecommons.org/ns#"
   xmlns:rdf="http://www.w3.org/1999/02/22-rdf-syntax-ns#"
   xmlns:svg="http://www.w3.org/2000/svg"
   xmlns="http://www.w3.org/2000/svg"
   xmlns:sodipodi="http://sodipodi.sourceforge.net/DTD/sodipodi-0.dtd"
   xmlns:inkscape="http://www.inkscape.org/namespaces/inkscape"
   version="1.1"
   width="297.63779"
   height="191.33858"
   id="svg2"
   inkscape:version="0.47 r22583"
   sodipodi:docname="ceeCasePrint.svg">
  <sodipodi:namedview
     pagecolor="#ffffff"
     bordercolor="#666666"
     borderopacity="1"
     objecttolerance="10"
     gridtolerance="10"
     guidetolerance="10"
     inkscape:pageopacity="0"
     inkscape:pageshadow="2"
     inkscape:window-width="1440"
     inkscape:window-height="825"
     id="namedview43"
     showgrid="false"
     inkscape:zoom="2.1637038"
     inkscape:cx="131.25807"
     inkscape:cy="110.33767"
     inkscape:window-x="0"
     inkscape:window-y="24"
     inkscape:window-maximized="1"
     inkscape:current-layer="svg2"
     showguides="true"
     inkscape:guide-bbox="true"
     inkscape:snap-object-midpoints="true">
    <sodipodi:guide
       orientation="0,1"
       position="39.745276,159.44882"
       id="guide4029" />
    <sodipodi:guide
       orientation="1,0"
       position="31.889764,71.636424"
       id="guide4031" />
    <sodipodi:guide
       orientation="1,0"
       position="265.74803,96.131459"
       id="guide4033" />
    <sodipodi:guide
       orientation="0,1"
       position="91.971925,31.889764"
       id="guide4143" />
  </sodipodi:namedview>
  <defs
     id="defs4">
    <inkscape:perspective
       sodipodi:type="inkscape:persp3d"
       inkscape:vp_x="0 : 95.669289 : 1"
       inkscape:vp_y="0 : 1000 : 0"
       inkscape:vp_z="297.63779 : 95.669289 : 1"
       inkscape:persp3d-origin="148.81889 : 63.779526 : 1"
       id="perspective2942" />
  </defs>
  <metadata
     id="metadata7">
    <rdf:RDF>
      <cc:Work
         rdf:about="">
        <dc:format>image/svg+xml</dc:format>
        <dc:type
           rdf:resource="http://purl.org/dc/dcmitype/StillImage" />
        <dc:title></dc:title>
      </cc:Work>
    </rdf:RDF>
  </metadata>
  <rect
     style="fill:none;stroke:#000000;stroke-width:0.03543307;stroke-linecap:round;stroke-linejoin:round;stroke-miterlimit:4;stroke-opacity:1;stroke-dasharray:none;stroke-dashoffset:0"
     id="rect2816"
     y="-4.2968747e-07"
     x="0"
     ry="31.889763"
     rx="31.889763"
     height="191.33858"
     width="297.63779" />
  <path
     inkscape:connector-curvature="0"
     style="fill:none;stroke:#000000;stroke-width:0.03181421;stroke-linecap:round;stroke-linejoin:round;stroke-miterlimit:4;stroke-opacity:1;stroke-dasharray:none;stroke-dashoffset:0"
     id="path3590"
     d="m 37.142371,159.44876 a 5.252534,5.2525176 0 0 1 -10.505068,0 5.252534,5.2525176 0 1 1 10.505068,0 z" />
  <path
     inkscape:connector-curvature="0"
     style="fill:none;stroke:#000000;stroke-width:0.03181421;stroke-linecap:round;stroke-linejoin:round;stroke-miterlimit:4;stroke-opacity:1;stroke-dasharray:none;stroke-dashoffset:0"
     id="path4298"
     d="m 271.00064,159.44876 a 5.252535,5.2525186 0 0 1 -10.50507,0 5.252535,5.2525186 0 1 1 10.50507,0 z" />
  <path
     inkscape:connector-curvature="0"
     style="fill:none;stroke:#000000;stroke-width:0.03181421;stroke-linecap:round;stroke-linejoin:round;stroke-miterlimit:4;stroke-opacity:1;stroke-dasharray:none;stroke-dashoffset:0"
     id="path4296"
     d="m 271.00053,31.906188 a 5.2525257,5.2525267 0 0 1 -10.505,0 5.2525257,5.2525267 0 1 1 10.505,0 z" />
  <path
     inkscape:connector-curvature="0"
     style="fill:none;stroke:#000000;stroke-width:0.03181421;stroke-linecap:round;stroke-linejoin:round;stroke-miterlimit:4;stroke-opacity:1;stroke-dasharray:none;stroke-dashoffset:0"
     id="path4300"
     d="m 37.142298,31.889757 a 5.252534,5.2525176 0 0 1 -10.505068,0 5.252534,5.2525176 0 1 1 10.505068,0 z" />
  <g
     id="g5207"
     transform="matrix(0.9996148,0.0277534,-0.0277534,0.9996148,59.360407,-880.28452)">
    <g
       style="font-size:40px;font-style:normal;font-variant:normal;font-weight:normal;font-stretch:normal;fill:#000000;fill-opacity:1;stroke:none;font-family:DejaVu Sans;-inkscape-font-specification:DejaVu Sans"
       id="flowRoot2816"
       transform="matrix(2.1186577,-0.73091114,0.73091114,2.1186577,891.94384,-63.648949)">
      <path
         inkscape:connector-curvature="0"
         style="font-weight:300;font-family:Terminal Dosis;-inkscape-font-specification:Terminal Dosis Light"
         id="path3631"
         d="m -470.64,344.64625 c -2.40001,0 -4.22667,-0.66667 -5.48,-2 -1.22667,-1.33333 -1.84,-3.09333 -1.84,-5.28 l 0,-4.8 c 0,-2.15999 0.61333,-3.90665 1.84,-5.24 1.25333,-1.35998 3.07999,-2.03998 5.48,-2.04 1.57332,2e-5 2.87999,0.26669 3.92,0.8 1.03999,0.53335 1.55999,1.05335 1.56,1.56 -10e-6,0.18668 -0.08,0.34668 -0.24,0.48 -0.16001,0.13335 -0.32001,0.20002 -0.48,0.2 -0.16001,2e-5 -0.41335,-0.13332 -0.76,-0.4 -0.34668,-0.26665 -0.86668,-0.53332 -1.56,-0.8 -0.66668,-0.29332 -1.48001,-0.43998 -2.44,-0.44 -1.89334,2e-5 -3.36001,0.52002 -4.4,1.56 -1.01334,1.04002 -1.52,2.48001 -1.52,4.32 l 0,4.8 c 0,1.84001 0.50666,3.28 1.52,4.32 1.03999,1.04 2.51999,1.56 4.44,1.56 0.98666,0 1.79999,-0.13333 2.44,-0.4 0.66665,-0.29333 1.15999,-0.57333 1.48,-0.84 0.34665,-0.26666 0.61332,-0.4 0.8,-0.4 0.18665,0 0.34665,0.0667 0.48,0.2 0.15999,0.13334 0.23999,0.29334 0.24,0.48 -10e-6,0.53333 -0.52001,1.06667 -1.56,1.6 -1.04001,0.50667 -2.34668,0.76 -3.92,0.76" />
      <path
         inkscape:connector-curvature="0"
         style="font-weight:300;font-family:Terminal Dosis;-inkscape-font-specification:Terminal Dosis Light"
         id="path3633"
         d="m -454.86437,325.28625 c 1.91998,2e-5 3.57332,0.69335 4.95999,2.08 1.41332,1.36002 2.11999,3.06668 2.12001,5.12 -2e-5,0.69334 -0.08,1.25334 -0.24001,1.68 -0.16001,0.42668 -0.42668,0.73334 -0.79999,0.92 -0.37335,0.18668 -0.72002,0.30668 -1.04,0.36 -0.29335,0.0267 -0.70669,0.04 -1.24,0.04 l -9.48001,0 0,1.88 c 0,1.78667 0.62667,3.21334 1.88,4.28 1.25333,1.06667 2.88,1.6 4.88001,1.6 0.98665,0 1.81332,-0.13333 2.47999,-0.4 0.66666,-0.29333 1.15999,-0.57333 1.48001,-0.84 0.34665,-0.26666 0.59998,-0.4 0.76,-0.4 0.18665,0 0.34665,0.08 0.48,0.24 0.15998,0.16 0.23998,0.32 0.24,0.48 -2e-5,0.26667 -0.21335,0.58667 -0.64001,0.96 -0.42668,0.34667 -1.08001,0.66667 -1.95999,0.96 -0.88002,0.26667 -1.85335,0.4 -2.92001,0.4 -2.37334,0 -4.32,-0.66667 -5.83999,-2 -1.49334,-1.36 -2.24001,-3.12 -2.24,-5.28 l 0,-5 c -10e-6,-1.91999 0.69333,-3.57332 2.07999,-4.96 1.41333,-1.41331 3.09333,-2.11998 5.04001,-2.12 m -5.72001,8.8 9,0 c 0.98666,10e-6 1.62666,-0.0933 1.92001,-0.28 0.31998,-0.18666 0.47998,-0.58666 0.48,-1.2 -2e-5,-1.51999 -0.53335,-2.87999 -1.6,-4.08 -1.06668,-1.22665 -2.42668,-1.83998 -4.08,-1.84 -1.60001,2e-5 -2.96001,0.57335 -4.08,1.72 -1.09334,1.12001 -1.64001,2.44001 -1.64001,3.96 l 0,1.72" />
      <path
         inkscape:connector-curvature="0"
         style="font-weight:300;font-family:Terminal Dosis;-inkscape-font-specification:Terminal Dosis Light"
         id="path3635"
         d="m -437.13,325.28625 c 1.91999,2e-5 3.57332,0.69335 4.96,2.08 1.41332,1.36002 2.11998,3.06668 2.12,5.12 -2e-5,0.69334 -0.08,1.25334 -0.24,1.68 -0.16002,0.42668 -0.42668,0.73334 -0.8,0.92 -0.37335,0.18668 -0.72001,0.30668 -1.04,0.36 -0.29335,0.0267 -0.70668,0.04 -1.24,0.04 l -9.48,0 0,1.88 c 0,1.78667 0.62666,3.21334 1.88,4.28 1.25333,1.06667 2.87999,1.6 4.88,1.6 0.98666,0 1.81332,-0.13333 2.48,-0.4 0.66665,-0.29333 1.15999,-0.57333 1.48,-0.84 0.34665,-0.26666 0.59999,-0.4 0.76,-0.4 0.18665,0 0.34665,0.08 0.48,0.24 0.15998,0.16 0.23998,0.32 0.24,0.48 -2e-5,0.26667 -0.21335,0.58667 -0.64,0.96 -0.42668,0.34667 -1.08001,0.66667 -1.96,0.96 -0.88001,0.26667 -1.85334,0.4 -2.92,0.4 -2.37334,0 -4.32001,-0.66667 -5.84,-2 -1.49334,-1.36 -2.24,-3.12 -2.24,-5.28 l 0,-5 c 0,-1.91999 0.69333,-3.57332 2.08,-4.96 1.41333,-1.41331 3.09333,-2.11998 5.04,-2.12 m -5.72,8.8 9,0 c 0.98665,10e-6 1.62665,-0.0933 1.92,-0.28 0.31999,-0.18666 0.47999,-0.58666 0.48,-1.2 -1e-5,-1.51999 -0.53335,-2.87999 -1.6,-4.08 -1.06668,-1.22665 -2.42668,-1.83998 -4.08,-1.84 -1.60001,2e-5 -2.96001,0.57335 -4.08,1.72 -1.09334,1.12001 -1.64,2.44001 -1.64,3.96 l 0,1.72" />
    </g>
    <g
       id="g5180"
       transform="matrix(1.263249,0,0,1.263249,-91.866528,-256.95059)">
      <g
         style="font-size:40px;font-style:normal;font-variant:normal;font-weight:normal;font-stretch:normal;fill:#000000;fill-opacity:1;stroke:none;font-family:DejaVu Sans;-inkscape-font-specification:DejaVu Sans"
         id="flowRoot2826"
         transform="matrix(0.34632202,-0.11947688,0.11947688,0.34632202,308.69497,846.02755)">
        <path
           inkscape:connector-curvature="0"
           style="font-weight:300;font-family:Terminal Dosis;-inkscape-font-specification:Terminal Dosis Light"
           id="path3606"
           d="m -427.98,325.28625 c 1.94666,2e-5 3.61332,0.72002 5,2.16 1.41332,1.44002 2.11998,3.12001 2.12,5.04 l 0,11.2 c -2e-5,0.18667 -0.08,0.36 -0.24,0.52 -0.13335,0.13333 -0.29335,0.2 -0.48,0.2 -0.18668,0 -0.34668,-0.0667 -0.48,-0.2 -0.13335,-0.16 -0.20002,-0.33333 -0.2,-0.52 l 0,-11.2 c -2e-5,-1.51999 -0.56001,-2.86665 -1.68,-4.04 -1.12001,-1.17332 -2.46668,-1.75998 -4.04,-1.76 -1.54667,2e-5 -2.88001,0.58668 -4,1.76 -1.12,1.17335 -1.68,2.52001 -1.68,4.04 l 0,11.24 c 0,0.18667 -0.08,0.34667 -0.24,0.48 -0.13334,0.13333 -0.29334,0.2 -0.48,0.2 -0.18667,0 -0.34667,-0.0667 -0.48,-0.2 -0.13334,-0.13333 -0.2,-0.29333 -0.2,-0.48 l 0,-11.24 c 0,-1.91999 0.69333,-3.59998 2.08,-5.04 1.41333,-1.43998 3.07999,-2.15998 5,-2.16" />
        <path
           inkscape:connector-curvature="0"
           style="font-weight:300;font-family:Terminal Dosis;-inkscape-font-specification:Terminal Dosis Light"
           id="path3608"
           d="m -414.3575,327.44625 c 1.41333,-1.43998 3.07999,-2.15998 5,-2.16 1.91999,2e-5 3.58665,0.70669 5,2.12 1.41332,1.41335 2.11998,3.10668 2.12,5.08 l 0,4.88 c -2e-5,1.92001 -0.72002,3.61334 -2.16,5.08 -1.41335,1.46667 -3.06668,2.2 -4.96,2.2 -1.89334,0 -3.54667,-0.73333 -4.96,-2.2 -1.41334,-1.46666 -2.12,-3.15999 -2.12,-5.08 l 0,-4.88 c 0,-1.91999 0.69333,-3.59998 2.08,-5.04 m 10.72,9.92 0,-4.88 c -1e-5,-1.49332 -0.56001,-2.82665 -1.68,-4 -1.12001,-1.19998 -2.46668,-1.79998 -4.04,-1.8 -1.57334,2e-5 -2.92001,0.60002 -4.04,1.8 -1.09334,1.17335 -1.64,2.50668 -1.64,4 l 0,4.88 c 0,1.52001 0.56,2.88 1.68,4.08 1.11999,1.2 2.45333,1.8 4,1.8 1.54666,0 2.87999,-0.6 4,-1.8 1.14665,-1.2 1.71999,-2.55999 1.72,-4.08" />
        <path
           inkscape:connector-curvature="0"
           style="font-weight:300;font-family:Terminal Dosis;-inkscape-font-specification:Terminal Dosis Light"
           id="path3610"
           d="m -390.71438,325.28625 c 1.94666,2e-5 3.61333,0.72002 5,2.16 1.41332,1.44002 2.11999,3.12001 2.12,5.04 l 0,11.2 c -10e-6,0.18667 -0.08,0.36 -0.24,0.52 -0.13334,0.13333 -0.29334,0.2 -0.47999,0.2 -0.18669,0 -0.34669,-0.0667 -0.48,-0.2 -0.13335,-0.16 -0.20002,-0.33333 -0.2,-0.52 l 0,-11.2 c -2e-5,-1.51999 -0.56002,-2.86665 -1.68,-4.04 -1.12002,-1.17332 -2.46668,-1.75998 -4.04001,-1.76 -1.54667,2e-5 -2.88,0.58668 -4,1.76 -1.12,1.17335 -1.68,2.52001 -1.68,4.04 l 0,11.24 c 0,0.18667 -0.08,0.34667 -0.23999,0.48 -0.13334,0.13333 -0.29334,0.2 -0.48,0.2 -0.18667,0 -0.34667,-0.0667 -0.48001,-0.2 -0.13333,-0.13333 -0.2,-0.29333 -0.19999,-0.48 l 0,-11.24 c -10e-6,-1.91999 0.69333,-3.59998 2.07999,-5.04 1.41333,-1.43998 3.08,-2.15998 5,-2.16" />
        <path
           inkscape:connector-curvature="0"
           style="font-weight:300;font-family:Terminal Dosis;-inkscape-font-specification:Terminal Dosis Light"
           id="path3612"
           d="m -377.09188,327.44625 c 1.41333,-1.43998 3.08,-2.15998 5,-2.16 1.91999,2e-5 3.58666,0.70669 5,2.12 1.41332,1.41335 2.11999,3.10668 2.12001,5.08 l 0,4.88 c -2e-5,1.92001 -0.72002,3.61334 -2.16,5.08 -1.41335,1.46667 -3.06668,2.2 -4.96001,2.2 -1.89334,0 -3.54667,-0.73333 -4.95999,-2.2 -1.41334,-1.46666 -2.12001,-3.15999 -2.12,-5.08 l 0,-4.88 c -10e-6,-1.91999 0.69333,-3.59998 2.07999,-5.04 m 10.72001,9.92 0,-4.88 c -2e-5,-1.49332 -0.56002,-2.82665 -1.68,-4 -1.12002,-1.19998 -2.46668,-1.79998 -4.04001,-1.8 -1.57334,2e-5 -2.92,0.60002 -4.03999,1.8 -1.09334,1.17335 -1.64001,2.50668 -1.64001,4 l 0,4.88 c 0,1.52001 0.56,2.88 1.68,4.08 1.12,1.2 2.45333,1.8 4,1.8 1.54666,0 2.87999,-0.6 4,-1.8 1.14666,-1.2 1.71999,-2.55999 1.72001,-4.08" />
        <path
           inkscape:connector-curvature="0"
           style="font-weight:300;font-family:Terminal Dosis;-inkscape-font-specification:Terminal Dosis Light"
           id="path3614"
           d="m -359.52875,313.68625 c 0.48,3e-5 0.72,0.2267 0.72,0.68 l 0,29.32 c 0,0.18667 -0.08,0.36 -0.24,0.52 -0.13334,0.13333 -0.29334,0.2 -0.48,0.2 -0.18667,0 -0.34667,-0.0667 -0.48,-0.2 -0.13334,-0.16 -0.2,-0.33333 -0.2,-0.52 l 0,-29.32 c 0,-0.4533 0.22666,-0.67997 0.68,-0.68" />
        <path
           inkscape:connector-curvature="0"
           style="font-weight:300;font-family:Terminal Dosis;-inkscape-font-specification:Terminal Dosis Light"
           id="path3616"
           d="m -352.57562,325.52625 c 0.47999,2e-5 0.71999,0.22669 0.72,0.68 l 0,17.48 c -1e-5,0.18667 -0.08,0.36 -0.24,0.52 -0.13334,0.13333 -0.29334,0.2 -0.48,0.2 -0.18667,0 -0.34667,-0.0667 -0.48001,-0.2 -0.13333,-0.16 -0.2,-0.33333 -0.19999,-0.52 l 0,-17.48 c -10e-6,-0.18665 0.0667,-0.34665 0.19999,-0.48 0.13334,-0.13331 0.29334,-0.19998 0.48001,-0.2 m 0,-9.24 c 0.45332,3e-5 0.85332,0.17336 1.19999,0.52 0.34667,0.34669 0.52,0.74669 0.52001,1.2 -1e-5,0.45336 -0.17334,0.85336 -0.52001,1.2 -0.34667,0.34669 -0.74667,0.52002 -1.19999,0.52 -0.48001,2e-5 -0.89334,-0.17331 -1.24,-0.52 -0.34667,-0.34664 -0.52001,-0.74664 -0.52,-1.2 -10e-6,-0.45331 0.17333,-0.85331 0.52,-1.2 0.34666,-0.34664 0.75999,-0.51997 1.24,-0.52" />
        <path
           inkscape:connector-curvature="0"
           style="font-weight:300;font-family:Terminal Dosis;-inkscape-font-specification:Terminal Dosis Light"
           id="path3618-3"
           d="m -346.4225,338.84625 0,-21.88 c 0,-0.18664 0.0667,-0.34664 0.2,-0.48 0.16,-0.13331 0.32,-0.19997 0.48,-0.2 0.18666,3e-5 0.34666,0.0667 0.48,0.2 0.16,0.13336 0.24,0.29336 0.24,0.48 l 0,8.56 5.4,0 c 0.18666,2e-5 0.34666,0.08 0.48,0.24 0.13332,0.13335 0.19999,0.29335 0.2,0.48 -1e-5,0.18668 -0.0667,0.34668 -0.2,0.48 -0.13334,0.13335 -0.29334,0.20002 -0.48,0.2 l -5.4,0 0,11.92 c 0,1.52 0.33333,2.6 1,3.24 0.66666,0.61334 1.81333,0.92 3.44,0.92 l 0.92,0 c 0.18666,0 0.34666,0.0667 0.48,0.2 0.13332,0.13333 0.19999,0.29333 0.2,0.48 -10e-6,0.18667 -0.0667,0.36 -0.2,0.52 -0.13334,0.13333 -0.29334,0.2 -0.48,0.2 l -0.92,0 c -3.89334,0 -5.84,-1.85333 -5.84,-5.56" />
        <path
           inkscape:connector-curvature="0"
           style="font-weight:300;font-family:Terminal Dosis;-inkscape-font-specification:Terminal Dosis Light"
           id="path3620-4"
           d="m -334.04312,332.48625 0,11.2 c -1e-5,0.18667 -0.08,0.36 -0.24,0.52 -0.13334,0.13333 -0.29334,0.2 -0.48,0.2 -0.18667,0 -0.34667,-0.0667 -0.48001,-0.2 -0.13333,-0.16 -0.2,-0.33333 -0.19999,-0.52 l 0,-29.32 c -10e-6,-0.4533 0.22666,-0.67997 0.68,-0.68 0.47999,3e-5 0.71999,0.2267 0.72,0.68 l 0,13.96 c 1.14666,-2.02665 2.93332,-3.03998 5.35999,-3.04 1.97333,2e-5 3.66666,0.70669 5.08001,2.12 1.41331,1.41335 2.11998,3.10668 2.12,5.08 l 0,11.2 c -2e-5,0.48 -0.24002,0.72 -0.72,0.72 -0.45335,0 -0.68002,-0.24 -0.68,-0.72 l 0,-11.2 c -2e-5,-1.49332 -0.57335,-2.82665 -1.72,-4 -1.12002,-1.19998 -2.44002,-1.79998 -3.96001,-1.8 -1.44,2e-5 -2.72,0.53335 -3.83999,1.6 -1.09334,1.06668 -1.64001,2.46668 -1.64,4.2" />
        <path
           inkscape:connector-curvature="0"
           style="font-weight:300;font-family:Terminal Dosis;-inkscape-font-specification:Terminal Dosis Light"
           id="path3622"
           d="m -307.41937,313.68625 c 0.47999,3e-5 0.71999,0.2267 0.72,0.68 l 0,29.32 c -1e-5,0.18667 -0.08,0.36 -0.24,0.52 -0.13334,0.13333 -0.29334,0.2 -0.48,0.2 -0.18667,0 -0.34667,-0.0667 -0.48001,-0.2 -0.13333,-0.16 -0.2,-0.33333 -0.19999,-0.52 l 0,-29.32 c -10e-6,-0.4533 0.22666,-0.67997 0.68,-0.68" />
        <path
           inkscape:connector-curvature="0"
           style="font-weight:300;font-family:Terminal Dosis;-inkscape-font-specification:Terminal Dosis Light"
           id="path3624-0"
           d="m -300.42625,325.52625 3.72,0 c 2.45332,2e-5 4.25332,0.65335 5.4,1.96 1.14665,1.28002 1.71999,2.98668 1.72,5.12 l 0,11.08 c -10e-6,0.48 -0.22668,0.72 -0.68,0.72 -0.18668,0 -0.36001,-0.0667 -0.52,-0.2 -0.13335,-0.13333 -0.20001,-0.30667 -0.2,-0.52 l 0,-2.08 c -1.76001,2.02667 -3.76001,3.04 -6,3.04 -1.65334,0 -3,-0.44 -4.04,-1.32 -1.01334,-0.90666 -1.52,-2.22666 -1.52,-3.96 0,-1.99999 0.78666,-3.37332 2.36,-4.12 1.59999,-0.77332 3.91999,-1.15999 6.96,-1.16 l 2.24,0 0,-1.48 c -1e-5,-1.62665 -0.49335,-2.97332 -1.48,-4.04 -0.96001,-1.09332 -2.37334,-1.63998 -4.24,-1.64 l -3.72,0 c -0.18667,2e-5 -0.36,-0.0666 -0.52,-0.2 -0.13334,-0.15998 -0.2,-0.33332 -0.2,-0.52 0,-0.45331 0.24,-0.67998 0.72,-0.68 m 9.44,13.32 0,-3.36 -2.2,0 c -1.20001,1e-5 -2.21334,0.04 -3.04,0.12 -0.80001,0.08 -1.61334,0.25334 -2.44,0.52 -0.82667,0.24001 -1.45334,0.64001 -1.88,1.2 -0.4,0.53334 -0.6,1.21334 -0.6,2.04 0,1.28 0.37333,2.25334 1.12,2.92 0.77333,0.64 1.77333,0.96 3,0.96 1.43999,0 2.79999,-0.50667 4.08,-1.52 1.30665,-1.01333 1.95999,-1.97333 1.96,-2.88" />
        <path
           inkscape:connector-curvature="0"
           style="font-weight:300;font-family:Terminal Dosis;-inkscape-font-specification:Terminal Dosis Light"
           id="path3626"
           d="m -283.59125,313.68625 c 0.48,3e-5 0.72,0.2267 0.72,0.68 l 0,13.96 c 1.14666,-2.02665 2.93333,-3.03998 5.36,-3.04 1.97332,2e-5 3.66665,0.70669 5.08,2.12 1.41332,1.41335 2.11998,3.10668 2.12,5.08 l 0,4.88 c -2e-5,1.92001 -0.72002,3.61334 -2.16,5.08 -1.41335,1.46667 -3.06668,2.2 -4.96,2.2 -1.17334,0 -2.26667,-0.29333 -3.28,-0.88 -0.98667,-0.58667 -1.70667,-1.30666 -2.16,-2.16 l 0,2.08 c 0,0.18667 -0.08,0.36 -0.24,0.52 -0.13334,0.13333 -0.29334,0.2 -0.48,0.2 -0.18667,0 -0.34667,-0.0667 -0.48,-0.2 -0.13334,-0.16 -0.2,-0.33333 -0.2,-0.52 l 0,-29.32 c 0,-0.4533 0.22666,-0.67997 0.68,-0.68 m 11.88,23.68 0,-4.88 c -2e-5,-1.49332 -0.57335,-2.82665 -1.72,-4 -1.12001,-1.19998 -2.44001,-1.79998 -3.96,-1.8 -1.44001,2e-5 -2.72001,0.53335 -3.84,1.6 -1.09334,1.06668 -1.64,2.46668 -1.64,4.2 l 0,6.36 c 0,0.82667 0.56,1.77334 1.68,2.84 1.11999,1.04 2.39999,1.56 3.84,1.56 1.49332,0 2.79999,-0.6 3.92,-1.8 1.14665,-1.2 1.71998,-2.55999 1.72,-4.08" />
        <path
           inkscape:connector-curvature="0"
           style="font-weight:300;font-family:Terminal Dosis;-inkscape-font-specification:Terminal Dosis Light"
           id="path3628"
           d="m -260.36125,326.68625 c -1.52001,2e-5 -2.65334,0.40002 -3.4,1.2 -0.74667,0.77335 -1.12,1.62668 -1.12,2.56 0,0.82668 0.36,1.52001 1.08,2.08 0.71999,0.56001 1.58666,1.02668 2.6,1.4 1.03999,0.37334 2.06666,0.77334 3.08,1.2 1.03999,0.40001 1.91999,1.00001 2.64,1.8 0.71999,0.80001 1.07999,1.78667 1.08,2.96 -1e-5,1.46667 -0.53335,2.62667 -1.6,3.48 -1.06668,0.85333 -2.53334,1.28 -4.4,1.28 -2.10667,0 -3.69334,-0.46667 -4.76,-1.4 -1.04,-0.93333 -1.56,-2.06666 -1.56,-3.4 0,-0.63999 0.24,-0.95999 0.72,-0.96 0.45333,10e-6 0.68,0.33334 0.68,1 0,0.85334 0.4,1.62667 1.2,2.32 0.8,0.69333 2.02666,1.04 3.68,1.04 1.57332,0 2.73332,-0.30667 3.48,-0.92 0.77332,-0.64 1.15999,-1.45333 1.16,-2.44 -1e-5,-0.90666 -0.36001,-1.66666 -1.08,-2.28 -0.72001,-0.63999 -1.58668,-1.14666 -2.6,-1.52 l -3.12,-1.2 c -1.01334,-0.42666 -1.88,-1.01332 -2.6,-1.76 -0.72,-0.74665 -1.08,-1.65332 -1.08,-2.72 0,-1.30665 0.49333,-2.47998 1.48,-3.52 1.01333,-1.06665 2.46666,-1.59998 4.36,-1.6 1.75999,2e-5 3.13332,0.46669 4.12,1.4 0.98665,0.90668 1.47999,2.06668 1.48,3.48 -1e-5,0.69335 -0.22668,1.04001 -0.68,1.04 -0.48001,10e-6 -0.72001,-0.33332 -0.72,-1 -0.0534,-2.34665 -1.42668,-3.51998 -4.12,-3.52" />
      </g>
      <g
         id="layer1-8"
         transform="matrix(0.03809865,-0.01311417,0.01311417,0.03809865,166.09185,1002.9944)">
        <rect
           style="fill:#000000;fill-opacity:1;stroke:none;display:inline"
           id="rect3659"
           transform="matrix(0,1,1,0,0,0)"
           y="235.71426"
           x="348.07645"
           ry="14.173228"
           rx="14.173228"
           height="268.57144"
           width="268.57144" />
        <g
           id="g6559"
           transform="matrix(0.70710678,-0.70710678,0.70710678,0.70710678,-201.03331,401.39488)">
          <rect
             style="color:#000000;fill:#ffffff;fill-opacity:1;fill-rule:nonzero;stroke:none;stroke-width:4.02899981;marker:none;visibility:visible;display:inline;overflow:visible;enable-background:accumulate"
             id="rect6541"
             y="382.36218"
             x="267.85715"
             height="36.42857"
             width="36.42857" />
          <rect
             style="color:#000000;fill:#ffffff;fill-opacity:1;fill-rule:nonzero;stroke:none;stroke-width:4.02899981;marker:none;visibility:visible;display:inline;overflow:visible;enable-background:accumulate"
             id="rect6543"
             y="382.36218"
             x="328.31473"
             height="36.42857"
             width="36.42857" />
          <rect
             style="color:#000000;fill:#ffffff;fill-opacity:1;fill-rule:nonzero;stroke:none;stroke-width:4.02899981;marker:none;visibility:visible;display:inline;overflow:visible;enable-background:accumulate"
             id="rect6545"
             y="382.36218"
             x="388.77228"
             height="36.42857"
             width="36.42857" />
          <rect
             style="color:#000000;fill:#ffffff;fill-opacity:1;fill-rule:nonzero;stroke:none;stroke-width:4.02899981;marker:none;visibility:visible;display:inline;overflow:visible;enable-background:accumulate"
             id="rect6547"
             y="442.81976"
             x="388.77228"
             height="36.42857"
             width="36.42857" />
          <rect
             style="color:#000000;fill:#ffffff;fill-opacity:1;fill-rule:nonzero;stroke:none;stroke-width:4.02899981;marker:none;visibility:visible;display:inline;overflow:visible;enable-background:accumulate"
             id="rect6549"
             y="442.81976"
             x="328.31473"
             height="36.42857"
             width="36.42857" />
          <rect
             style="color:#000000;fill:#ffffff;fill-opacity:1;fill-rule:nonzero;stroke:none;stroke-width:4.02899981;marker:none;visibility:visible;display:inline;overflow:visible;enable-background:accumulate"
             id="rect6551"
             y="442.81976"
             x="267.85715"
             height="36.42857"
             width="36.42857" />
          <rect
             style="color:#000000;fill:#ffffff;fill-opacity:1;fill-rule:nonzero;stroke:none;stroke-width:4.02899981;marker:none;visibility:visible;display:inline;overflow:visible;enable-background:accumulate"
             id="rect6553"
             y="503.27731"
             x="267.85715"
             height="36.42857"
             width="36.42857" />
          <rect
             style="color:#000000;fill:#ffffff;fill-opacity:1;fill-rule:nonzero;stroke:none;stroke-width:4.02899981;marker:none;visibility:visible;display:inline;overflow:visible;enable-background:accumulate"
             id="rect6555"
             y="503.27731"
             x="328.31473"
             height="36.42857"
             width="36.42857" />
          <rect
             style="color:#000000;fill:#ffffff;fill-opacity:1;fill-rule:nonzero;stroke:none;stroke-width:4.02899981;marker:none;visibility:visible;display:inline;overflow:visible;enable-background:accumulate"
             id="rect6557"
             y="503.27731"
             x="388.77228"
             height="36.42857"
             width="36.42857" />
        </g>
      </g>
    </g>
  </g>
  <g
     id="layer2"
     style="display:inline" />
</svg>
